<?xml version="1.0" encoding="iso-8859-1"?>
<!-- Uploaded to: SVG Repo, www.svgrepo.com, Generator: SVG Repo Mixer Tools -->
<svg fill="#000000" height="800px" width="800px" version="1.1" id="Layer_1" xmlns="http://www.w3.org/2000/svg" xmlns:xlink="http://www.w3.org/1999/xlink" 
	 viewBox="0 0 502.002 502.002" xml:space="preserve">
<g>
	<g>
		<g>
			<path d="M336.068,234.683c0.291,0.56,0.627,1.08,1.002,1.56l4.616,6.701c11.701,16.991,31.003,27.135,51.633,27.135h40.938
				c20.225,0,36.316-6.316,47.829-18.773c19.238-20.816,18.12-51.42,17.861-55.688v-94.172c0-14.975-12.183-27.157-27.157-27.157
				c-2.476,0-4.876,0.333-7.157,0.957V44.631c0-14.975-12.183-27.157-27.157-27.157c-2.989,0-5.867,0.485-8.558,1.382
				c-3.611-10.763-13.793-18.539-25.756-18.539c-14.975,0-27.157,12.183-27.157,27.157v1.645c-2.281-0.624-4.681-0.957-7.157-0.957
				c-14.974,0-27.157,12.183-27.157,27.157v72.192c-7.845-10.627-16.495-13.391-22.377-13.837
				c-7.315-0.554-14.639,2.252-20.089,7.702c-7.441,7.441-13.938,20.229-2.788,38.951L336.068,234.683z M314.366,135.518
				c0.949-0.948,2.495-2.042,4.435-1.901c2.417,0.183,5.187,2.233,7.8,5.773l17.841,24.872c2.023,2.821,5.361,4.392,8.828,4.147
				c3.462-0.244,6.551-2.266,8.16-5.342l0.123-0.234c0.748-1.43,1.138-3.02,1.138-4.634V55.318c0-3.946,3.21-7.157,7.157-7.157
				s7.157,3.211,7.157,7.157v79.707c0,5.522,4.477,10,10,10s10-4.478,10-10V55.318V27.473c0-3.946,3.211-7.157,7.157-7.157
				c3.946,0,7.157,3.211,7.157,7.157V44.63v88.316c0,5.522,4.477,10,10,10s10-4.478,10-10V44.631c0-3.946,3.211-7.157,7.157-7.157
				c3.946,0,7.157,3.211,7.157,7.157v56.815v40.502c0,5.522,4.477,10,10,10s10-4.478,10-10v-40.502c0-3.946,3.211-7.157,7.157-7.157
				c3.946,0,7.157,3.211,7.157,7.157v94.504c0,0.263,0.01,0.525,0.031,0.787c0.02,0.252,1.595,25.655-12.581,40.994
				c-7.572,8.193-18.722,12.348-33.141,12.348h-40.938c-14.048,0-27.193-6.908-35.162-18.479l-4.696-6.818l-38.417-73.944
				c-0.098-0.188-0.202-0.373-0.311-0.555C309.039,140.845,312.118,137.766,314.366,135.518z"/>
			<path d="M29.108,123.047h1.646c-0.624,2.281-0.957,4.682-0.957,7.157c0,14.975,12.183,27.157,27.157,27.157h72.192
				c-10.625,7.844-13.391,16.494-13.836,22.376c-0.555,7.317,2.252,14.64,7.702,20.09c4.564,4.564,11.139,8.772,19.861,8.772
				c5.499,0,11.852-1.674,19.091-5.984l74.355-38.632c0.561-0.292,1.083-0.63,1.563-1.006l6.698-4.612
				c16.99-11.701,27.134-31.003,27.134-51.633V65.795c0-20.225-6.316-36.316-18.773-47.829
				C232.123-1.273,201.517-0.157,197.254,0.104H103.08c-14.975,0-27.157,12.183-27.157,27.157c0,2.476,0.333,4.876,0.957,7.157
				H46.265c-14.975,0-27.157,12.183-27.157,27.156c0,2.988,0.486,5.867,1.381,8.559C9.727,73.745,1.951,83.927,1.951,95.889
				C1.951,110.864,14.134,123.047,29.108,123.047z M29.108,88.732h17.157h88.317c5.523,0,10-4.478,10-10c0-5.522-4.477-10-10-10
				H46.265c-3.946,0-7.157-3.211-7.157-7.157c0-3.946,3.211-7.156,7.157-7.156h56.815h40.502c5.523,0,10-4.478,10-10
				c0-5.522-4.477-10-10-10H103.08c-3.946,0-7.157-3.211-7.157-7.157c0-3.946,3.211-7.157,7.157-7.157h94.505
				c0.243,0,0.516-0.011,0.757-0.028c0.254-0.021,25.676-1.693,41.103,12.651c8.14,7.569,12.268,18.694,12.268,33.067v40.938
				c0,14.049-6.907,27.192-18.478,35.16l-6.821,4.697l-73.942,38.417c-0.188,0.098-0.373,0.202-0.555,0.312
				c-9.439,5.693-12.517,2.615-14.766,0.366c-0.949-0.948-2.049-2.488-1.901-4.435c0.184-2.418,2.233-5.187,5.774-7.8l24.873-17.841
				c2.823-2.025,4.393-5.37,4.146-8.836c-0.247-3.465-2.274-6.555-5.355-8.159l-0.234-0.122c-1.426-0.743-3.011-1.131-4.619-1.131
				H56.953c-3.946,0-7.157-3.211-7.157-7.157c0-3.946,3.21-7.157,7.157-7.157h79.707c5.523,0,10-4.478,10-10c0-5.522-4.477-10-10-10
				H56.953H29.108c-3.946,0-7.157-3.211-7.157-7.157S25.162,88.732,29.108,88.732z"/>
			<path d="M165.933,267.318c-0.291-0.56-0.627-1.08-1.002-1.56l-4.616-6.701c-11.701-16.991-31.003-27.135-51.633-27.135H67.745
				c-20.225,0-36.316,6.316-47.829,18.773c-19.238,20.816-18.12,51.42-17.861,55.688v94.172c0,14.975,12.183,27.157,27.157,27.157
				c2.476,0,4.876-0.333,7.157-0.957v30.615c0,14.975,12.183,27.157,27.157,27.157c2.989,0,5.867-0.485,8.558-1.382
				c3.611,10.763,13.793,18.539,25.756,18.539c14.975,0,27.157-12.183,27.157-27.157v-1.645c2.281,0.624,4.681,0.957,7.157,0.957
				c14.974,0,27.157-12.183,27.157-27.157V374.49c7.845,10.627,16.495,13.391,22.377,13.837c7.315,0.553,14.639-2.252,20.089-7.702
				c7.441-7.441,13.938-20.229,2.788-38.951L165.933,267.318z M187.635,366.483c-0.949,0.949-2.491,2.049-4.435,1.901
				c-2.417-0.183-5.187-2.233-7.8-5.773l-17.841-24.872c-2.023-2.821-5.359-4.391-8.828-4.147c-3.462,0.244-6.551,2.266-8.16,5.342
				l-0.123,0.234c-0.748,1.43-1.138,3.02-1.138,4.634v102.882c0,3.946-3.21,7.157-7.157,7.157c-3.947,0-7.157-3.211-7.157-7.157
				v-79.707c0-5.522-4.477-10-10-10s-10,4.478-10,10v79.707v27.845c0,3.946-3.211,7.157-7.157,7.157s-7.157-3.211-7.157-7.157
				v-17.157v-88.316c0-5.522-4.477-10-10-10s-10,4.478-10,10v88.316c0,3.946-3.211,7.157-7.157,7.157
				c-3.946,0-7.157-3.211-7.157-7.157v-56.815v-40.502c0-5.522-4.477-10-10-10s-10,4.478-10,10v40.502
				c0,3.946-3.211,7.157-7.157,7.157s-7.157-3.211-7.157-7.157c0,0-0.01-95.029-0.031-95.291
				c-0.02-0.252-1.595-25.655,12.581-40.994c7.572-8.193,18.722-12.348,33.141-12.348h40.938c14.048,0,27.193,6.908,35.162,18.479
				l4.696,6.818l38.417,73.944c0.098,0.188,0.202,0.373,0.311,0.555C192.961,361.157,189.883,364.235,187.635,366.483z"/>
			<path d="M44.757,279.322c-5.346-1.39-10.805,1.816-12.195,7.16c-1.32,5.074-1.577,9.639-1.561,12.575
				c0.007,1.22,0.063,2.015,0.08,2.229c0.417,5.238,4.8,9.241,9.966,9.241c0.264,0,0.53-0.011,0.797-0.031
				c5.506-0.438,9.617-5.223,9.179-10.729c-0.007-0.103-0.02-0.391-0.022-0.822c-0.008-1.427,0.1-4.289,0.917-7.428
				C53.308,286.172,50.102,280.712,44.757,279.322z"/>
			<path d="M86.996,260.001H67.53c-5.523,0-10,4.478-10,10c0,5.522,4.477,10,10,10h19.466c5.523,0,10-4.478,10-10
				C96.996,264.479,92.519,260.001,86.996,260.001z"/>
			<path d="M472.893,378.955h-1.646c0.624-2.281,0.957-4.682,0.957-7.157c0-14.975-12.183-27.157-27.157-27.157h-72.192
				c10.625-7.844,13.391-16.494,13.836-22.376c0.555-7.317-2.252-14.64-7.702-20.09c-7.442-7.441-20.229-13.937-38.952-2.788
				l-74.355,38.632c-0.561,0.292-1.083,0.63-1.563,1.006l-6.698,4.612c-16.99,11.701-27.134,31.003-27.134,51.633v40.938
				c0,20.225,6.316,36.316,18.773,47.829c17.525,16.196,41.988,17.965,51.83,17.965c1.848,0,3.182-0.063,3.856-0.104h94.173
				c14.975,0,27.157-12.183,27.157-27.157c0-2.476-0.333-4.876-0.957-7.157h30.615c14.975,0,27.157-12.183,27.157-27.156
				c0-2.988-0.486-5.867-1.381-8.559c10.762-3.611,18.538-13.793,18.538-25.756C500.05,391.138,487.867,378.955,472.893,378.955z
				 M472.893,413.269h-17.157h-88.317c-5.523,0-10,4.478-10,10c0,5.522,4.477,10,10,10h88.317c3.946,0,7.157,3.211,7.157,7.157
				c0,3.946-3.211,7.156-7.157,7.156H398.92h-40.502c-5.523,0-10,4.478-10,10c0,5.522,4.477,10,10,10h40.502
				c3.946,0,7.157,3.211,7.157,7.157c0,3.946-3.211,7.157-7.157,7.157h-94.505c-0.243,0-0.516,0.011-0.757,0.028
				c-0.256,0.02-25.675,1.692-41.103-12.651c-8.14-7.569-12.268-18.694-12.268-33.067v-40.938c0-14.049,6.907-27.192,18.478-35.16
				l6.821-4.697l73.942-38.417c0.188-0.098,0.373-0.202,0.555-0.312c9.439-5.693,12.517-2.614,14.766-0.366
				c0.949,0.948,2.049,2.488,1.901,4.435c-0.184,2.418-2.233,5.187-5.774,7.8l-24.873,17.841c-2.823,2.025-4.393,5.37-4.146,8.836
				c0.247,3.465,2.274,6.555,5.355,8.159l0.234,0.122c1.426,0.743,3.011,1.131,4.619,1.131h102.882c3.946,0,7.157,3.211,7.157,7.157
				c0,3.946-3.21,7.157-7.157,7.157H365.34c-5.523,0-10,4.478-10,10c0,5.522,4.477,10,10,10h79.707h27.845
				c3.946,0,7.157,3.211,7.157,7.157C480.049,410.057,476.839,413.269,472.893,413.269z"/>
		</g>
	</g>
</g>
</svg>